<svg xmlns="http://www.w3.org/2000/svg" viewBox="0 0 1820 640">
<g transform="translate(-235.0,-154.6) scale(1.13)">
<path d="M 699.2,535.0 L 695.1,541.9 L 690.7,548.6 L 686.1,555.2 L 681.2,561.6 L 676.2,567.8 L 670.9,573.9 L 665.4,579.8 L 659.8,585.4 L 653.9,590.9 L 647.8,596.2 L 641.6,601.2 L 635.2,606.1 L 628.6,610.7 L 621.9,615.1 L 615.0,619.2 L 608.0,623.1 L 600.8,626.7 L 593.5,630.1 L 586.2,633.3 L 578.7,636.1 L 571.1,638.7 L 563.4,641.1 L 555.6,643.2 L 547.8,645.0 L 539.9,646.5 L 532.0,647.8 L 524.0,648.7 L 516.0,649.4 L 508.0,649.9 L 500.0,650.0 L 492.0,649.9 L 484.0,649.4 L 476.0,648.7 L 468.0,647.8 L 460.1,646.5 L 452.2,645.0 L 444.4,643.2 L 436.6,641.1 L 428.9,638.7 L 421.3,636.1 L 413.8,633.3 L 406.5,630.1 L 399.2,626.7 L 392.0,623.1 L 385.0,619.2 L 378.1,615.1 L 371.4,610.7 L 364.8,606.1 L 358.4,601.2 L 352.2,596.2 L 346.1,590.9 L 340.2,585.4 L 334.6,579.8 L 329.1,573.9 L 323.8,567.8 L 318.8,561.6 L 313.9,555.2 L 309.3,548.6 L 304.9,541.9 L 300.8,535.0 L 296.9,528.0 L 293.3,520.8 L 289.9,513.5 L 286.7,506.2 L 283.9,498.7 L 281.3,491.1 L 278.9,483.4 L 276.8,475.6 L 275.0,467.8 L 273.5,459.9 L 272.2,452.0 L 271.3,444.0 L 270.6,436.0 L 270.1,428.0 L 270.0,420.0 L 270.1,412.0 L 270.6,404.0 L 271.3,396.0 L 272.2,388.0 L 273.5,380.1 L 275.0,372.2 L 276.8,364.4 L 278.9,356.6 L 281.3,348.9 L 283.9,341.3 L 286.7,333.8 L 289.9,326.5 L 293.3,319.2 L 296.9,312.0 L 300.8,305.0 L 304.9,298.1 L 309.3,291.4 L 313.9,284.8 L 318.8,278.4 L 323.8,272.2 L 329.1,266.1 L 334.6,260.2 L 340.2,254.6 L 346.1,249.1 L 352.2,243.8 L 358.4,238.8 L 364.8,233.9 L 371.4,229.3 L 378.1,224.9 L 385.0,220.8 L 392.0,216.9 L 399.2,213.3 L 406.5,209.9 L 413.8,206.7 L 421.3,203.9 L 428.9,201.3 L 436.6,198.9 L 444.4,196.8 L 452.2,195.0 L 460.1,193.5 L 468.0,192.2 L 476.0,191.3 L 484.0,190.6 L 492.0,190.1 L 500.0,190.0 L 508.0,190.1 L 516.0,190.6 L 524.0,191.3 L 532.0,192.2 L 539.9,193.5 L 547.8,195.0 L 555.6,196.8 L 563.4,198.9 L 571.1,201.3 L 578.7,203.9 L 586.2,206.7 L 593.5,209.9 L 600.8,213.3 L 608.0,216.9 L 615.0,220.8 L 621.9,224.9 L 628.6,229.3 L 635.2,233.9 L 641.6,238.8 L 647.8,243.8 L 651.9,248.5 L 654.4,254.3 L 654.9,260.5 L 653.5,266.6 L 650.3,272.0 L 645.6,276.1 L 639.8,278.5 L 633.6,279.1 L 627.5,277.7 L 622.1,274.5 L 617.0,270.3 L 611.6,266.3 L 606.2,262.6 L 600.6,259.1 L 594.8,255.8 L 588.9,252.7 L 583.0,249.9 L 576.9,247.3 L 570.7,245.0 L 564.5,242.9 L 558.2,241.0 L 551.8,239.4 L 545.4,238.1 L 538.9,237.0 L 532.4,236.1 L 525.9,235.5 L 519.4,235.2 L 512.9,235.1 L 506.5,235.2 L 500.0,235.6 L 493.6,236.3 L 487.2,237.2 L 480.9,238.3 L 474.7,239.7 L 468.5,241.2 L 462.4,243.1 L 456.4,245.1 L 450.5,247.3 L 444.7,249.8 L 439.0,252.4 L 433.4,255.3 L 428.0,258.3 L 422.7,261.5 L 417.5,264.9 L 412.5,268.4 L 407.6,272.2 L 402.9,276.0 L 398.3,280.1 L 393.9,284.2 L 389.7,288.5 L 385.6,292.9 L 381.7,297.4 L 377.9,302.1 L 374.3,306.8 L 370.9,311.7 L 367.7,316.6 L 364.6,321.7 L 361.8,326.8 L 359.1,331.9 L 356.5,337.2 L 354.2,342.5 L 352.0,347.8 L 350.0,353.2 L 348.2,358.7 L 346.6,364.2 L 345.1,369.7 L 343.8,375.2 L 342.7,380.8 L 341.7,386.4 L 341.0,392.0 L 340.4,397.6 L 339.9,403.2 L 339.7,408.8 L 339.6,414.4 L 339.6,420.0 L 339.9,425.6 L 340.3,431.2 L 340.8,436.7 L 341.5,442.3 L 342.4,447.8 L 343.5,453.3 L 344.7,458.7 L 346.1,464.1 L 347.6,469.5 L 349.3,474.9 L 351.1,480.1 L 353.2,485.4 L 355.3,490.6 L 357.7,495.7 L 360.1,500.7 L 362.8,505.7 L 365.6,510.7 L 368.5,515.5 L 371.7,520.3 L 374.9,524.9 L 378.3,529.5 L 381.9,534.0 L 385.6,538.4 L 389.5,542.7 L 393.5,546.9 L 397.7,551.0 L 402.0,554.9 L 406.4,558.7 L 411.0,562.4 L 415.8,565.9 L 420.6,569.3 L 425.6,572.6 L 430.7,575.6 L 435.9,578.6 L 441.3,581.3 L 446.7,583.9 L 452.3,586.3 L 458.0,588.5 L 463.8,590.5 L 469.6,592.3 L 475.6,594.0 L 481.6,595.4 L 487.7,596.6 L 493.8,597.6 L 500.0,598.3 L 506.2,598.9 L 512.5,599.2 L 518.8,599.3 L 525.2,599.1 L 531.5,598.8 L 537.9,598.1 L 544.2,597.3 L 550.5,596.2 L 556.8,594.8 L 563.1,593.2 L 569.3,591.4 L 575.4,589.3 L 581.5,587.0 L 587.5,584.5 L 593.4,581.7 L 599.2,578.7 L 604.9,575.5 L 610.4,572.0 L 615.9,568.3 L 621.2,564.4 L 626.3,560.3 L 631.3,556.0 L 636.1,551.5 L 640.8,546.8 L 645.3,541.9 L 649.5,536.8 L 653.6,531.6 L 657.5,526.2 L 661.1,520.7 L 664.5,515.0 L 668.5,510.1 L 673.7,506.7 L 679.8,505.1 L 686.0,505.4 L 691.9,507.7 L 696.7,511.6 L 700.1,516.9 L 701.8,522.9 L 701.4,529.2 Z" fill="#0AA3EB"/>
<path d="M 406.6,386.5 L 434.7,364.4" fill="none" stroke="#162E73" stroke-width="40.0" stroke-linecap="round" stroke-linejoin="round"/>
<path d="M 434.7,364.4 L 418.5,479.6" fill="none" stroke="#162E73" stroke-width="40.0" stroke-linecap="round" stroke-linejoin="round"/>
<path d="M 549.9,374.4 L 499.9,374.4" fill="none" stroke="#162E73" stroke-width="40.0" stroke-linecap="round" stroke-linejoin="round"/>
<path d="M 499.9,374.4 L 493.1,423.4" fill="none" stroke="#162E73" stroke-width="40.0" stroke-linecap="round" stroke-linejoin="round"/>
<path d="M 493.1,423.4 L 504.3,423.5 L 511.4,421.8 L 518.6,421.5 L 525.4,422.7 L 531.7,425.3 L 537.1,429.2 L 541.4,434.2 L 544.5,440.2 L 546.2,446.8 L 546.4,453.8 L 545.1,460.9 L 542.4,467.8 L 538.4,474.2 L 533.2,479.8 L 527.2,484.5 L 520.4,487.9 L 513.3,489.9 L 506.2,490.6 L 499.2,489.7 L 492.8,487.4 L 487.2,483.8 L 482.6,479.0 L 479.2,473.3" fill="none" stroke="#162E73" stroke-width="40.0" stroke-linecap="round" stroke-linejoin="round"/>
<path d="M 600.5,386.5 L 628.6,364.4" fill="none" stroke="#162E73" stroke-width="40.0" stroke-linecap="round" stroke-linejoin="round"/>
<path d="M 628.6,364.4 L 612.5,479.6" fill="none" stroke="#162E73" stroke-width="40.0" stroke-linecap="round" stroke-linejoin="round"/>
<path d="M 399.6,379.5 L 427.7,357.4" fill="none" stroke="#162E73" stroke-width="40.0" stroke-linecap="round" stroke-linejoin="round"/>
<path d="M 427.7,357.4 L 411.5,472.6" fill="none" stroke="#162E73" stroke-width="40.0" stroke-linecap="round" stroke-linejoin="round"/>
<path d="M 542.9,367.4 L 492.9,367.4" fill="none" stroke="#162E73" stroke-width="40.0" stroke-linecap="round" stroke-linejoin="round"/>
<path d="M 492.9,367.4 L 486.1,416.4" fill="none" stroke="#162E73" stroke-width="40.0" stroke-linecap="round" stroke-linejoin="round"/>
<path d="M 486.1,416.4 L 497.3,416.5 L 504.4,414.8 L 511.6,414.5 L 518.4,415.7 L 524.7,418.3 L 530.1,422.2 L 534.4,427.2 L 537.5,433.2 L 539.2,439.8 L 539.4,446.8 L 538.1,453.9 L 535.4,460.8 L 531.4,467.2 L 526.2,472.8 L 520.2,477.5 L 513.4,480.9 L 506.3,482.9 L 499.2,483.6 L 492.2,482.7 L 485.8,480.4 L 480.2,476.8 L 475.6,472.0 L 472.2,466.3" fill="none" stroke="#162E73" stroke-width="40.0" stroke-linecap="round" stroke-linejoin="round"/>
<path d="M 593.5,379.5 L 621.6,357.4" fill="none" stroke="#162E73" stroke-width="40.0" stroke-linecap="round" stroke-linejoin="round"/>
<path d="M 621.6,357.4 L 605.5,472.6" fill="none" stroke="#162E73" stroke-width="40.0" stroke-linecap="round" stroke-linejoin="round"/>
<path d="M 399.6,379.5 L 427.7,357.4" fill="none" stroke="#FFD305" stroke-width="30.0" stroke-linecap="round" stroke-linejoin="round"/>
<path d="M 427.7,357.4 L 411.5,472.6" fill="none" stroke="#FFD305" stroke-width="30.0" stroke-linecap="round" stroke-linejoin="round"/>
<path d="M 542.9,367.4 L 492.9,367.4" fill="none" stroke="#FFD305" stroke-width="30.0" stroke-linecap="round" stroke-linejoin="round"/>
<path d="M 492.9,367.4 L 486.1,416.4" fill="none" stroke="#FFD305" stroke-width="30.0" stroke-linecap="round" stroke-linejoin="round"/>
<path d="M 486.1,416.4 L 497.3,416.5 L 504.4,414.8 L 511.6,414.5 L 518.4,415.7 L 524.7,418.3 L 530.1,422.2 L 534.4,427.2 L 537.5,433.2 L 539.2,439.8 L 539.4,446.8 L 538.1,453.9 L 535.4,460.8 L 531.4,467.2 L 526.2,472.8 L 520.2,477.5 L 513.4,480.9 L 506.3,482.9 L 499.2,483.6 L 492.2,482.7 L 485.8,480.4 L 480.2,476.8 L 475.6,472.0 L 472.2,466.3" fill="none" stroke="#FFD305" stroke-width="30.0" stroke-linecap="round" stroke-linejoin="round"/>
<path d="M 593.5,379.5 L 621.6,357.4" fill="none" stroke="#FFD305" stroke-width="30.0" stroke-linecap="round" stroke-linejoin="round"/>
<path d="M 621.6,357.4 L 605.5,472.6" fill="none" stroke="#FFD305" stroke-width="30.0" stroke-linecap="round" stroke-linejoin="round"/>
<path d="M 710.3,362.7 L 721.3,362.7 L 721.3,384.7 L 743.3,384.7 L 743.3,395.7 L 721.3,395.7 L 721.3,417.7 L 710.3,417.7 L 710.3,395.7 L 688.3,395.7 L 688.3,384.7 L 710.3,384.7 Z" fill="#162E73"/>
<path d="M 729.0,403.4 L 740.0,403.4 L 740.0,414.4 L 729.0,414.4 Z" fill="#162E73"/>
<path d="M 729.0,366.0 L 740.0,366.0 L 740.0,377.0 L 729.0,377.0 Z" fill="#162E73"/>
<path d="M 691.6,403.4 L 702.6,403.4 L 702.6,414.4 L 691.6,414.4 Z" fill="#162E73"/>
<path d="M 691.6,366.0 L 702.6,366.0 L 702.6,377.0 L 691.6,377.0 Z" fill="#162E73"/>
<path d="M 703.3,355.7 L 714.3,355.7 L 714.3,377.7 L 736.3,377.7 L 736.3,388.7 L 714.3,388.7 L 714.3,410.7 L 703.3,410.7 L 703.3,388.7 L 681.3,388.7 L 681.3,377.7 L 703.3,377.7 Z" fill="#FFD305" stroke="#162E73" stroke-width="4" stroke-linejoin="miter"/>
<path d="M 722.0,396.4 L 733.0,396.4 L 733.0,407.4 L 722.0,407.4 Z" fill="#FFD305" stroke="#162E73" stroke-width="4" stroke-linejoin="miter"/>
<path d="M 722.0,359.0 L 733.0,359.0 L 733.0,370.0 L 722.0,370.0 Z" fill="#FFD305" stroke="#162E73" stroke-width="4" stroke-linejoin="miter"/>
<path d="M 684.6,396.4 L 695.6,396.4 L 695.6,407.4 L 684.6,407.4 Z" fill="#FFD305" stroke="#162E73" stroke-width="4" stroke-linejoin="miter"/>
<path d="M 684.6,359.0 L 695.6,359.0 L 695.6,370.0 L 684.6,370.0 Z" fill="#FFD305" stroke="#162E73" stroke-width="4" stroke-linejoin="miter"/>
</g>
<path d="M 803.3,376.1 L 793.3,383.2 L 782.2,388.5 L 770.4,391.9 L 758.1,393.2 L 745.9,392.5 L 733.9,389.7 L 722.5,385.0 L 712.1,378.5 L 703.0,370.3 L 695.3,360.6 L 689.4,349.9 L 685.3,338.3 L 683.3,326.1 L 683.3,313.9 L 685.3,301.7 L 689.4,290.1 L 695.3,279.4 L 703.0,269.7 L 712.1,261.5 L 722.5,255.0 L 733.9,250.3 L 745.9,247.5 L 758.1,246.8 L 770.4,248.1 L 782.2,251.5 L 793.3,256.8 L 803.3,263.9" fill="none" stroke="#0AA3EB" stroke-width="47.5" stroke-linecap="round" stroke-linejoin="round"/>
<path d="M 894.8,244.8 L 894.8,391.2 L 970.0,391.2" fill="none" stroke="#0AA3EB" stroke-width="47.5" stroke-linecap="round" stroke-linejoin="round"/>
<path d="M 1025.4,244.8 L 1025.4,347.7 L 1025.4,347.7 L 1026.7,358.1 L 1030.4,367.9 L 1036.4,376.6 L 1044.2,383.5 L 1053.5,388.4 L 1063.7,390.9 L 1074.2,390.9 L 1084.4,388.4 L 1093.7,383.5 L 1101.5,376.6 L 1107.5,367.9 L 1111.2,358.1 L 1112.5,347.7 L 1112.5,244.8" fill="none" stroke="#0AA3EB" stroke-width="47.5" stroke-linecap="round" stroke-linejoin="round"/>
<path d="M 1195.6,244.8 L 1195.6,399.2" fill="none" stroke="#0AA3EB" stroke-width="47.5" stroke-linecap="round" stroke-linejoin="round"/>
<path d="M 1195.6,244.8 L 1223.3,244.8 L 1223.3,244.8 L 1230.0,245.6 L 1236.2,248.0 L 1241.7,251.8 L 1246.1,256.8 L 1249.2,262.7 L 1250.8,269.2 L 1250.8,275.8 L 1249.2,282.3 L 1246.1,288.2 L 1241.7,293.2 L 1236.2,297.0 L 1230.0,299.4 L 1223.3,300.2 L 1223.3,300.2 L 1195.6,300.2" fill="none" stroke="#0AA3EB" stroke-width="47.5" stroke-linecap="round" stroke-linejoin="round"/>
<path d="M 1195.6,300.2 L 1227.3,300.2 L 1227.3,300.2 L 1239.1,301.6 L 1250.3,305.9 L 1260.1,312.7 L 1268.0,321.6 L 1273.6,332.1 L 1276.4,343.7 L 1276.4,355.7 L 1273.6,367.2 L 1268.0,377.8 L 1260.1,386.7 L 1250.3,393.5 L 1239.1,397.7 L 1227.3,399.2 L 1227.3,399.2 L 1195.6,399.2" fill="none" stroke="#0AA3EB" stroke-width="47.5" stroke-linecap="round" stroke-linejoin="round"/>
<path d="M 1435.4,275.7 L 1472.4,246.6" fill="none" stroke="#162E73" stroke-width="48.0" stroke-linecap="round" stroke-linejoin="round"/>
<path d="M 1472.4,246.6 L 1451.1,398.6" fill="none" stroke="#162E73" stroke-width="48.0" stroke-linecap="round" stroke-linejoin="round"/>
<path d="M 1624.4,255.4 L 1558.5,255.4" fill="none" stroke="#162E73" stroke-width="48.0" stroke-linecap="round" stroke-linejoin="round"/>
<path d="M 1558.5,255.4 L 1549.5,320.0" fill="none" stroke="#162E73" stroke-width="48.0" stroke-linecap="round" stroke-linejoin="round"/>
<path d="M 1549.5,320.0 L 1564.2,320.3 L 1573.7,318.0 L 1583.1,317.6 L 1592.1,319.1 L 1600.4,322.6 L 1607.5,327.7 L 1613.2,334.3 L 1617.3,342.2 L 1619.5,350.9 L 1619.7,360.2 L 1618.1,369.6 L 1614.5,378.7 L 1609.2,387.1 L 1602.4,394.6 L 1594.4,400.7 L 1585.6,405.2 L 1576.2,407.9 L 1566.7,408.7 L 1557.6,407.6 L 1549.1,404.6 L 1541.6,399.8 L 1535.6,393.5 L 1531.1,385.9" fill="none" stroke="#162E73" stroke-width="48.0" stroke-linecap="round" stroke-linejoin="round"/>
<path d="M 1691.2,275.7 L 1728.2,246.6" fill="none" stroke="#162E73" stroke-width="48.0" stroke-linecap="round" stroke-linejoin="round"/>
<path d="M 1728.2,246.6 L 1707.0,398.6" fill="none" stroke="#162E73" stroke-width="48.0" stroke-linecap="round" stroke-linejoin="round"/>
<path d="M 1428.4,268.7 L 1465.4,239.6" fill="none" stroke="#162E73" stroke-width="48.0" stroke-linecap="round" stroke-linejoin="round"/>
<path d="M 1465.4,239.6 L 1444.1,391.6" fill="none" stroke="#162E73" stroke-width="48.0" stroke-linecap="round" stroke-linejoin="round"/>
<path d="M 1617.4,248.4 L 1551.5,248.4" fill="none" stroke="#162E73" stroke-width="48.0" stroke-linecap="round" stroke-linejoin="round"/>
<path d="M 1551.5,248.4 L 1542.5,313.0" fill="none" stroke="#162E73" stroke-width="48.0" stroke-linecap="round" stroke-linejoin="round"/>
<path d="M 1542.5,313.0 L 1557.2,313.3 L 1566.7,311.0 L 1576.1,310.6 L 1585.1,312.1 L 1593.4,315.6 L 1600.5,320.7 L 1606.2,327.3 L 1610.3,335.2 L 1612.5,343.9 L 1612.7,353.2 L 1611.1,362.6 L 1607.5,371.7 L 1602.2,380.1 L 1595.4,387.6 L 1587.4,393.7 L 1578.6,398.2 L 1569.2,400.9 L 1559.7,401.7 L 1550.6,400.6 L 1542.1,397.6 L 1534.6,392.8 L 1528.6,386.5 L 1524.1,378.9" fill="none" stroke="#162E73" stroke-width="48.0" stroke-linecap="round" stroke-linejoin="round"/>
<path d="M 1684.2,268.7 L 1721.2,239.6" fill="none" stroke="#162E73" stroke-width="48.0" stroke-linecap="round" stroke-linejoin="round"/>
<path d="M 1721.2,239.6 L 1700.0,391.6" fill="none" stroke="#162E73" stroke-width="48.0" stroke-linecap="round" stroke-linejoin="round"/>
<path d="M 1428.4,268.7 L 1465.4,239.6" fill="none" stroke="#FFD305" stroke-width="38.0" stroke-linecap="round" stroke-linejoin="round"/>
<path d="M 1465.4,239.6 L 1444.1,391.6" fill="none" stroke="#FFD305" stroke-width="38.0" stroke-linecap="round" stroke-linejoin="round"/>
<path d="M 1617.4,248.4 L 1551.5,248.4" fill="none" stroke="#FFD305" stroke-width="38.0" stroke-linecap="round" stroke-linejoin="round"/>
<path d="M 1551.5,248.4 L 1542.5,313.0" fill="none" stroke="#FFD305" stroke-width="38.0" stroke-linecap="round" stroke-linejoin="round"/>
<path d="M 1542.5,313.0 L 1557.2,313.3 L 1566.7,311.0 L 1576.1,310.6 L 1585.1,312.1 L 1593.4,315.6 L 1600.5,320.7 L 1606.2,327.3 L 1610.3,335.2 L 1612.5,343.9 L 1612.7,353.2 L 1611.1,362.6 L 1607.5,371.7 L 1602.2,380.1 L 1595.4,387.6 L 1587.4,393.7 L 1578.6,398.2 L 1569.2,400.9 L 1559.7,401.7 L 1550.6,400.6 L 1542.1,397.6 L 1534.6,392.8 L 1528.6,386.5 L 1524.1,378.9" fill="none" stroke="#FFD305" stroke-width="38.0" stroke-linecap="round" stroke-linejoin="round"/>
<path d="M 1684.2,268.7 L 1721.2,239.6" fill="none" stroke="#FFD305" stroke-width="38.0" stroke-linecap="round" stroke-linejoin="round"/>
<path d="M 1721.2,239.6 L 1700.0,391.6" fill="none" stroke="#FFD305" stroke-width="38.0" stroke-linecap="round" stroke-linejoin="round"/>
</svg>