<svg xmlns="http://www.w3.org/2000/svg" viewBox="0 0 560 560">
<g transform="translate(-220,-140)">
<path d="M 663.9,557.6 L 665.5,579.7 A 230,230 0 1 1 665.5,260.3 L 663.9,282.4 L 645.5,297.9 L 643.4,295.4 L 641.2,292.9 L 638.9,290.4 L 636.6,288.1 L 634.3,285.7 L 631.9,283.4 L 629.5,281.2 L 627.0,279.0 L 624.5,276.8 L 621.9,274.7 L 619.3,272.7 L 616.6,270.7 L 614.0,268.8 L 611.2,266.9 L 608.5,265.1 L 605.7,263.3 L 602.9,261.6 L 600.0,259.9 L 597.2,258.3 L 594.3,256.7 L 591.3,255.3 L 588.4,253.8 L 585.4,252.4 L 582.4,251.1 L 579.3,249.9 L 576.3,248.7 L 573.2,247.6 L 570.1,246.5 L 567.0,245.5 L 563.9,244.5 L 560.7,243.6 L 557.6,242.8 L 554.4,242.1 L 551.2,241.4 L 548.0,240.7 L 544.8,240.1 L 541.6,239.6 L 538.4,239.2 L 535.2,238.8 L 532.0,238.4 L 528.8,238.2 L 525.6,238.0 L 522.4,237.8 L 519.2,237.7 L 515.9,237.7 L 512.7,237.8 L 509.5,237.8 L 506.4,238.0 L 503.2,238.2 L 500.0,238.5 L 496.8,238.8 L 493.7,239.2 L 490.5,239.7 L 487.4,240.2 L 484.3,240.7 L 481.2,241.3 L 478.1,242.0 L 475.1,242.8 L 472.1,243.5 L 469.0,244.4 L 466.0,245.3 L 463.1,246.2 L 460.1,247.2 L 457.2,248.2 L 454.3,249.3 L 451.4,250.5 L 448.5,251.7 L 445.7,252.9 L 442.9,254.2 L 440.1,255.6 L 437.4,256.9 L 434.7,258.4 L 432.0,259.8 L 429.4,261.4 L 426.8,262.9 L 424.2,264.5 L 421.6,266.2 L 419.1,267.8 L 416.6,269.6 L 414.2,271.3 L 411.8,273.1 L 409.4,275.0 L 407.0,276.9 L 404.7,278.8 L 402.5,280.7 L 400.2,282.7 L 398.0,284.7 L 395.9,286.7 L 393.8,288.8 L 391.7,290.9 L 389.7,293.1 L 387.7,295.2 L 385.7,297.4 L 383.8,299.6 L 381.9,301.9 L 380.1,304.2 L 378.3,306.5 L 376.5,308.8 L 374.8,311.2 L 373.1,313.5 L 371.5,315.9 L 369.9,318.3 L 368.3,320.8 L 366.8,323.2 L 365.3,325.7 L 363.9,328.2 L 362.5,330.7 L 361.2,333.3 L 359.9,335.8 L 358.6,338.4 L 357.4,340.9 L 356.2,343.5 L 355.1,346.1 L 354.0,348.8 L 352.9,351.4 L 351.9,354.1 L 350.9,356.7 L 350.0,359.4 L 349.1,362.1 L 348.3,364.8 L 347.4,367.5 L 346.7,370.2 L 346.0,372.9 L 345.3,375.6 L 344.6,378.4 L 344.0,381.1 L 343.5,383.9 L 343.0,386.6 L 342.5,389.4 L 342.1,392.2 L 341.7,394.9 L 341.3,397.7 L 341.0,400.5 L 340.7,403.3 L 340.5,406.0 L 340.3,408.8 L 340.2,411.6 L 340.1,414.4 L 340.0,417.2 L 340.0,420.0 L 340.0,422.8 L 340.1,425.6 L 340.2,428.4 L 340.3,431.2 L 340.5,434.0 L 340.7,436.7 L 341.0,439.5 L 341.3,442.3 L 341.7,445.1 L 342.1,447.8 L 342.5,450.6 L 343.0,453.4 L 343.5,456.1 L 344.0,458.9 L 344.6,461.6 L 345.3,464.4 L 346.0,467.1 L 346.7,469.8 L 347.4,472.5 L 348.3,475.2 L 349.1,477.9 L 350.0,480.6 L 350.9,483.3 L 351.9,485.9 L 352.9,488.6 L 354.0,491.2 L 355.1,493.9 L 356.2,496.5 L 357.4,499.1 L 358.6,501.6 L 359.9,504.2 L 361.2,506.7 L 362.5,509.3 L 363.9,511.8 L 365.3,514.3 L 366.8,516.8 L 368.3,519.2 L 369.9,521.7 L 371.5,524.1 L 373.1,526.5 L 374.8,528.8 L 376.5,531.2 L 378.3,533.5 L 380.1,535.8 L 381.9,538.1 L 383.8,540.4 L 385.7,542.6 L 387.7,544.8 L 389.7,546.9 L 391.7,549.1 L 393.8,551.2 L 395.9,553.3 L 398.0,555.3 L 400.2,557.3 L 402.5,559.3 L 404.7,561.2 L 407.0,563.1 L 409.4,565.0 L 411.8,566.9 L 414.2,568.7 L 416.6,570.4 L 419.1,572.2 L 421.6,573.8 L 424.2,575.5 L 426.8,577.1 L 429.4,578.6 L 432.0,580.2 L 434.7,581.6 L 437.4,583.1 L 440.1,584.4 L 442.9,585.8 L 445.7,587.1 L 448.5,588.3 L 451.4,589.5 L 454.3,590.7 L 457.2,591.8 L 460.1,592.8 L 463.1,593.8 L 466.0,594.7 L 469.0,595.6 L 472.1,596.5 L 475.1,597.2 L 478.1,598.0 L 481.2,598.7 L 484.3,599.3 L 487.4,599.8 L 490.5,600.3 L 493.7,600.8 L 496.8,601.2 L 500.0,601.5 L 503.2,601.8 L 506.4,602.0 L 509.5,602.2 L 512.7,602.2 L 515.9,602.3 L 519.2,602.3 L 522.4,602.2 L 525.6,602.0 L 528.8,601.8 L 532.0,601.6 L 535.2,601.2 L 538.4,600.8 L 541.6,600.4 L 544.8,599.9 L 548.0,599.3 L 551.2,598.6 L 554.4,597.9 L 557.6,597.2 L 560.7,596.4 L 563.9,595.5 L 567.0,594.5 L 570.1,593.5 L 573.2,592.4 L 576.3,591.3 L 579.3,590.1 L 582.4,588.9 L 585.4,587.6 L 588.4,586.2 L 591.3,584.7 L 594.3,583.3 L 597.2,581.7 L 600.0,580.1 L 602.9,578.4 L 605.7,576.7 L 608.5,574.9 L 611.2,573.1 L 614.0,571.2 L 616.6,569.3 L 619.3,567.3 L 621.9,565.3 L 624.5,563.2 L 627.0,561.0 L 629.5,558.8 L 631.9,556.6 L 634.3,554.3 L 636.6,551.9 L 638.9,549.6 L 641.2,547.1 L 643.4,544.6 L 645.5,542.1 Z" fill="#3363A9"/>
<path d="M 401.0,352.0 L 435.0,352.0 L 435.0,502.0 L 401.0,502.0 Z" fill="#1E3265"/>
<path d="M 373.0,368.0 L 401.0,352.0 L 401.0,386.0 L 373.0,400.0 Z" fill="#1E3265"/>
<path d="M 465.0,352.0 L 549.0,352.0 L 561.0,364.0 L 561.0,386.0 L 465.0,386.0 Z" fill="#1E3265"/>
<path d="M 465.0,386.0 L 499.0,386.0 L 499.0,414.0 L 465.0,414.0 Z" fill="#1E3265"/>
<path d="M 465.0,414.0 L 561.0,414.0 L 561.0,448.0 L 465.0,448.0 Z" fill="#1E3265"/>
<path d="M 527.0,448.0 L 561.0,448.0 L 561.0,468.0 L 527.0,468.0 Z" fill="#1E3265"/>
<path d="M 465.0,458.0 L 485.0,458.0 L 485.0,468.0 L 561.0,468.0 L 561.0,502.0 L 477.0,502.0 L 465.0,490.0 Z" fill="#1E3265"/>
<path d="M 611.0,352.0 L 645.0,352.0 L 645.0,502.0 L 611.0,502.0 Z" fill="#1E3265"/>
<path d="M 583.0,368.0 L 611.0,352.0 L 611.0,386.0 L 583.0,400.0 Z" fill="#1E3265"/>
<path d="M 394.0,345.0 L 428.0,345.0 L 428.0,495.0 L 394.0,495.0 Z" fill="#FACA07" stroke="#1E3265" stroke-width="6" stroke-linejoin="miter"/>
<path d="M 366.0,361.0 L 394.0,345.0 L 394.0,379.0 L 366.0,393.0 Z" fill="#FACA07" stroke="#1E3265" stroke-width="6" stroke-linejoin="miter"/>
<path d="M 458.0,345.0 L 542.0,345.0 L 554.0,357.0 L 554.0,379.0 L 458.0,379.0 Z" fill="#FACA07" stroke="#1E3265" stroke-width="6" stroke-linejoin="miter"/>
<path d="M 458.0,379.0 L 492.0,379.0 L 492.0,407.0 L 458.0,407.0 Z" fill="#FACA07" stroke="#1E3265" stroke-width="6" stroke-linejoin="miter"/>
<path d="M 458.0,407.0 L 554.0,407.0 L 554.0,441.0 L 458.0,441.0 Z" fill="#FACA07" stroke="#1E3265" stroke-width="6" stroke-linejoin="miter"/>
<path d="M 520.0,441.0 L 554.0,441.0 L 554.0,461.0 L 520.0,461.0 Z" fill="#FACA07" stroke="#1E3265" stroke-width="6" stroke-linejoin="miter"/>
<path d="M 458.0,451.0 L 478.0,451.0 L 478.0,461.0 L 554.0,461.0 L 554.0,495.0 L 470.0,495.0 L 458.0,483.0 Z" fill="#FACA07" stroke="#1E3265" stroke-width="6" stroke-linejoin="miter"/>
<path d="M 604.0,345.0 L 638.0,345.0 L 638.0,495.0 L 604.0,495.0 Z" fill="#FACA07" stroke="#1E3265" stroke-width="6" stroke-linejoin="miter"/>
<path d="M 576.0,361.0 L 604.0,345.0 L 604.0,379.0 L 576.0,393.0 Z" fill="#FACA07" stroke="#1E3265" stroke-width="6" stroke-linejoin="miter"/>
</g>
</svg>