<svg xmlns="http://www.w3.org/2000/svg" viewBox="0 0 400 400" role="img" aria-label="Toploaders rigides">
  <defs>
    <linearGradient id="t1" x1="0" y1="0" x2="1" y2="1">
      <stop offset="0" stop-color="#dfe9f5"/><stop offset="1" stop-color="#b9c9de"/>
    </linearGradient>
    <linearGradient id="tgloss" x1="0" y1="0" x2="1" y2="1">
      <stop offset="0" stop-color="#ffffff" stop-opacity=".85"/><stop offset=".5" stop-color="#ffffff" stop-opacity="0"/>
    </linearGradient>
  </defs>
  <ellipse cx="205" cy="352" rx="120" ry="18" fill="#000" opacity=".12"/>
  <g transform="rotate(-8 200 200)">
    <rect x="96" y="64" width="150" height="266" rx="8" fill="#9fb2cc"/>
    <rect x="88" y="56" width="150" height="266" rx="8" fill="url(#t1)" stroke="#8aa0bd" stroke-width="2"/>
    <rect x="138" y="44" width="50" height="20" rx="6" fill="#cfdcec" stroke="#8aa0bd" stroke-width="2"/>
    <rect x="104" y="74" width="118" height="230" rx="5" fill="#fff" opacity=".55"/>
    <rect x="88" y="56" width="60" height="266" rx="8" fill="url(#tgloss)"/>
  </g>
  <g transform="rotate(6 220 210)">
    <rect x="170" y="96" width="150" height="266" rx="8" fill="#9fb2cc"/>
    <rect x="162" y="88" width="150" height="266" rx="8" fill="url(#t1)" stroke="#8aa0bd" stroke-width="2"/>
    <rect x="212" y="76" width="50" height="20" rx="6" fill="#cfdcec" stroke="#8aa0bd" stroke-width="2"/>
    <circle cx="237" cy="210" r="44" fill="none" stroke="#ee1515" stroke-width="7" opacity=".7"/>
    <rect x="193" y="205" width="88" height="9" fill="#ee1515" opacity=".7"/>
    <circle cx="237" cy="210" r="15" fill="#fff" stroke="#ee1515" stroke-width="7" opacity=".7"/>
    <rect x="162" y="88" width="58" height="266" rx="8" fill="url(#tgloss)"/>
  </g>
</svg>
