<svg xmlns="http://www.w3.org/2000/svg" viewBox="0 0 400 400" role="img" aria-label="Classeur 360 cartes">
  <defs>
    <linearGradient id="b1" x1="0" y1="0" x2="1" y2="0">
      <stop offset="0" stop-color="#15224f"/><stop offset=".5" stop-color="#22336e"/><stop offset="1" stop-color="#15224f"/>
    </linearGradient>
    <linearGradient id="bgloss" x1="0" y1="0" x2="0" y2="1">
      <stop offset="0" stop-color="#fff" stop-opacity=".3"/><stop offset=".5" stop-color="#fff" stop-opacity="0"/>
    </linearGradient>
  </defs>
  <ellipse cx="205" cy="356" rx="130" ry="18" fill="#000" opacity=".12"/>
  <rect x="70" y="54" width="270" height="300" rx="10" fill="#0e1838"/>
  <rect x="62" y="46" width="270" height="300" rx="10" fill="url(#b1)" stroke="#0b1430" stroke-width="2"/>
  <rect x="62" y="46" width="270" height="300" rx="10" fill="url(#bgloss)"/>
  <rect x="62" y="46" width="30" height="300" fill="#0c1633"/>
  <g fill="#cdd6ea">
    <circle cx="77" cy="96" r="9"/><circle cx="77" cy="196" r="9"/><circle cx="77" cy="296" r="9"/>
  </g>
  <rect x="120" y="92" width="180" height="210" rx="6" fill="#0c1633" opacity=".55"/>
  <circle cx="210" cy="180" r="60" fill="none" stroke="#ee1515" stroke-width="9"/>
  <rect x="150" y="174" width="120" height="12" fill="#ee1515"/>
  <circle cx="210" cy="180" r="20" fill="#fff"/><circle cx="210" cy="180" r="20" fill="none" stroke="#ee1515" stroke-width="9"/>
  <text x="210" y="280" text-anchor="middle" font-family="Verdana,sans-serif" font-size="22" font-weight="bold" fill="#ffcb05">360</text>
</svg>
