<svg xmlns="http://www.w3.org/2000/svg" viewBox="0 0 400 400" role="img" aria-label="Protège-cartes Ultra Pro">
  <defs>
    <linearGradient id="s1" x1="0" y1="0" x2="1" y2="1">
      <stop offset="0" stop-color="#1e2c5e"/><stop offset="1" stop-color="#12203f"/>
    </linearGradient>
    <linearGradient id="s2" x1="0" y1="0" x2="1" y2="1">
      <stop offset="0" stop-color="#ee1515"/><stop offset="1" stop-color="#b30d0d"/>
    </linearGradient>
    <linearGradient id="gloss" x1="0" y1="0" x2="0" y2="1">
      <stop offset="0" stop-color="#ffffff" stop-opacity=".35"/><stop offset=".4" stop-color="#ffffff" stop-opacity="0"/>
    </linearGradient>
  </defs>
  <ellipse cx="205" cy="350" rx="120" ry="20" fill="#000" opacity=".12"/>
  <g transform="rotate(-9 200 200)">
    <rect x="92" y="70" width="190" height="262" rx="12" fill="#0d1730"/>
    <rect x="84" y="62" width="190" height="262" rx="12" fill="url(#s1)" stroke="#0b1226" stroke-width="2"/>
    <rect x="84" y="62" width="190" height="262" rx="12" fill="url(#gloss)"/>
    <rect x="104" y="86" width="150" height="150" rx="8" fill="#0b1430" opacity=".5"/>
    <circle cx="179" cy="161" r="46" fill="none" stroke="#ffcb05" stroke-width="6" opacity=".8"/>
    <circle cx="179" cy="161" r="16" fill="#ffcb05" opacity=".85"/>
    <text x="179" y="300" text-anchor="middle" font-family="Verdana,sans-serif" font-size="20" font-weight="bold" fill="#ffffff" opacity=".9">ULTRA PRO</text>
  </g>
  <g transform="rotate(-3 210 210)">
    <rect x="150" y="120" width="170" height="236" rx="12" fill="url(#s2)" stroke="#7d0808" stroke-width="2"/>
    <rect x="150" y="120" width="170" height="236" rx="12" fill="url(#gloss)"/>
    <rect x="168" y="142" width="134" height="134" rx="8" fill="#fff" opacity=".15"/>
    <text x="235" y="330" text-anchor="middle" font-family="Verdana,sans-serif" font-size="16" font-weight="bold" fill="#fff" opacity=".95">100 · MATTE</text>
  </g>
</svg>
